<?xml version="1.0" standalone="no"?>
<!DOCTYPE svg PUBLIC "-//W3C//DTD SVG 20010904//EN"
 "http://www.w3.org/TR/2001/REC-SVG-20010904/DTD/svg10.dtd">
<svg version="1.0" xmlns="http://www.w3.org/2000/svg"
 width="48.000000pt" height="48.000000pt" viewBox="0 0 48.000000 48.000000"
 preserveAspectRatio="xMidYMid meet">

<g transform="translate(0.000000,48.000000) scale(0.100000,-0.100000)" stroke="none">
<path d="M185 428 c-3 -7 -9 -33 -13 -58 l-7 -45 -50 -5 c-36 -4 -50 -9 -50
-20 0 -11 13 -16 46 -18 l46 -3 -6 -37 c-6 -36 -8 -37 -56 -42 -36 -4 -50 -9
-50 -20 0 -11 13 -16 46 -18 l46 -3 -9 -51 c-6 -34 -6 -54 1 -61 17 -17 29 2
38 58 l8 50 51 3 51 3 -9 -52 c-6 -35 -6 -55 1 -62 17 -17 29 2 38 58 l8 50
50 5 c36 4 50 9 50 20 0 11 -13 16 -46 18 l-46 3 6 37 c6 36 8 37 56 42 36 4
50 9 50 20 0 11 -13 16 -46 18 l-46 3 9 51 c6 34 6 54 -1 61 -17 17 -29 -2
-38 -58 l-8 -50 -51 -3 -52 -3 9 48 c5 26 7 53 4 60 -6 17 -24 17 -30 1z m106
-185 c-6 -38 -7 -38 -57 -41 -51 -3 -51 -3 -47 25 8 51 11 53 61 53 l49 0 -6
-37z"/>
</g>
</svg>
