<svg xmlns="http://www.w3.org/2000/svg" enable-background="new 0 0 100 100" viewBox="0 0 100 100"><path fill="#ce3056" d="M3.63,62.22c0.563,12.911,18.923,12.908,19.484,0c0,0,0-9.73,0-9.73h-9.742
				C8.011,52.489,3.63,56.864,3.63,62.22z"/><path fill="#5bb381" d="M62.234,47.511c5.362,0,9.742-4.375,9.742-9.73V13.417c-0.56-12.905-18.92-12.914-19.484,0
				c0,0,0,24.364,0,24.364C52.492,43.136,56.872,47.511,62.234,47.511z"/><path fill="#ce3056" d="M37.765,52.489c-5.362,0-9.742,4.375-9.742,9.73v24.364c0.56,12.905,18.92,12.914,19.484,0
				c0,0,0-24.364,0-24.364C47.508,56.864,43.128,52.489,37.765,52.489z"/><path fill="#5bb381" d="M96.37,37.78c-0.563-12.911-18.923-12.908-19.484,0c0,0,0,9.73,0,9.73h9.742
				C91.989,47.511,96.37,43.136,96.37,37.78z"/><path fill="#61c3ec" d="M13.372,47.511h24.393c12.921-0.559,12.93-18.897,0-19.461H13.372C0.45,28.61,0.445,46.948,13.372,47.511z"/><path fill="#e4b34b" d="M62.234 76.853h-9.742v9.73c0 5.355 4.38 9.73 9.742 9.73C75.161 95.751 75.158 77.414 62.234 76.853zM86.628 52.489H62.234c-12.923.56-12.928 18.898 0 19.461 0 0 24.393 0 24.393 0C99.548 71.391 99.557 53.052 86.628 52.489z"/><path fill="#61c3ec" d="M37.765,3.686c-12.926,0.562-12.924,18.9,0,19.461c0,0,9.742,0,9.742,0v-9.73
				C47.508,8.061,43.128,3.686,37.765,3.686z"/><path d="M62.182 75.355h-9.701c-.765 0-1.385.62-1.385 1.383v9.689c0 6.105 4.973 11.073 11.086 11.073C76.887 96.891 76.885 75.962 62.182 75.355zM62.182 94.733c-4.585 0-8.316-3.726-8.316-8.305v-8.305h8.316C73.204 78.558 73.203 94.298 62.182 94.733zM86.472 51.095h-24.29c-14.702.607-14.707 21.537 0 22.145 0 0 24.29 0 24.29 0C101.172 72.635 101.18 51.704 86.472 51.095zM86.472 70.473h-24.29c-4.585 0-8.316-3.726-8.316-8.305s3.731-8.305 8.316-8.305h24.29C97.489 54.296 97.498 70.036 86.472 70.473zM76.771 48.905h9.701c14.704-.607 14.705-21.538 0-22.145-6.112 0-11.086 4.967-11.086 11.073v9.689C75.386 48.285 76.006 48.905 76.771 48.905zM78.156 37.832c0-4.579 3.731-8.305 8.316-8.305 11.023.436 11.021 16.176 0 16.611h-8.316V37.832zM37.818 2.5c-14.706.608-14.704 21.538 0 22.145 0 0 9.701 0 9.701 0 .765 0 1.385-.62 1.385-1.383v-9.689C48.903 7.467 43.93 2.5 37.818 2.5zM46.133 21.878h-8.316c-4.585 0-8.316-3.726-8.316-8.305.437-11.01 16.196-11.008 16.631 0C46.133 13.572 46.133 21.878 46.133 21.878zM23.229 51.095h-9.701c-14.704.607-14.705 21.538 0 22.145 6.112 0 11.086-4.967 11.086-11.072v-9.689C24.614 51.715 23.994 51.095 23.229 51.095zM21.844 62.168c-.436 11.009-16.196 11.008-16.631 0 0-4.579 3.731-8.305 8.316-8.305h8.316V62.168z"/><path d="M37.818 51.095c-6.112 0-11.086 4.967-11.086 11.072v24.26c.606 14.683 21.562 14.691 22.172 0 0 0 0-24.26 0-24.26C48.903 56.063 43.93 51.095 37.818 51.095zM46.133 86.427c-.434 11.004-16.193 11.013-16.631 0 0 0 0-24.26 0-24.26 0-4.579 3.731-8.305 8.316-8.305s8.316 3.726 8.316 8.305V86.427zM13.529 48.905c0 0 24.289 0 24.289 0 14.702-.607 14.707-21.536 0-22.145-1.827.036-1.816 2.735 0 2.767 11.017.433 11.026 16.174 0 16.611 0 0-24.289 0-24.289 0-11.017-.433-11.027-16.174 0-16.611 0 0 18.216 0 18.216 0 1.817-.027 1.823-2.738 0-2.767 0 0-18.216 0-18.216 0C-1.171 27.365-1.182 48.295 13.529 48.905z"/><path d="M62.182,48.905c6.112,0,11.086-4.967,11.086-11.072c-0.036-1.824-2.738-1.814-2.77,0
				c-0.434,11.004-16.194,11.013-16.631,0c0,0,0-24.26,0-24.26c0.434-11.003,16.193-11.014,16.631,0c0,0,0,18.714,0,18.714
				c0.027,1.814,2.741,1.821,2.77,0c0,0,0-18.714,0-18.714c-0.605-14.681-21.562-14.692-22.172,0c0,0,0,24.26,0,24.26
				C51.096,43.937,56.069,48.905,62.182,48.905z"/></svg>