<?xml version="1.0" encoding="utf-8"?>
<svg viewBox="0 -16 544 544" version="1.1" xmlns="http://www.w3.org/2000/svg">
  <path fill="currentColor" d="M383.215,43.082c6.628,-11.479 21.306,-15.412 32.785,-8.785c48.293,27.883 84.065,69.124 105.343,116.361c15.399,34.002 22.756,69.954 22.7,105.505c0.01,35.358 -7.312,71.104 -22.587,104.928c-21.264,47.342 -57.077,88.68 -105.456,116.611c-11.479,6.628 -26.157,2.695 -32.784,-8.784c-6.628,-11.479 -2.695,-26.157 8.784,-32.785c32.428,-18.722 57.907,-44.857 75.533,-75.029c0.189,-0.371 0.39,-0.739 0.6,-1.104c3.532,-6.118 6.718,-12.34 9.564,-18.645c11.994,-26.715 18.286,-55.782 18.338,-85.187c-0.004,-29.615 -6.339,-58.896 -18.455,-85.784c-2.816,-6.216 -5.963,-12.351 -9.446,-18.384c-0.209,-0.362 -0.408,-0.728 -0.596,-1.096c-17.626,-30.175 -43.107,-56.313 -75.538,-75.037c-11.479,-6.628 -15.412,-21.306 -8.785,-32.785Zm-207.215,436.918l-176,0l0,-448l132.857,0.43c42.92,0.139 80.533,28.751 92.123,70.077l46.321,165.173c2.851,10.165 -4.751,20.244 -15.405,20.32l-15.896,0l0,64c0,17.636 -14.267,31.939 -32,32l-32,0l0,96Zm192,-362.564c-11.479,-6.627 -26.157,-2.694 -32.785,8.785c-6.627,11.479 -2.694,26.157 8.785,32.784c17.397,10.044 31.08,24.051 40.567,40.222c0.137,0.259 0.28,0.517 0.428,0.773c1.884,3.263 3.585,6.581 5.106,9.943c6.505,14.452 9.909,30.187 9.918,46.103c-0.022,15.858 -3.414,31.536 -9.887,45.942c-1.529,3.385 -3.24,6.727 -5.137,10.012c-0.149,0.257 -0.292,0.516 -0.43,0.776c-9.487,16.17 -23.169,30.176 -40.565,40.219c-11.479,6.627 -15.412,21.306 -8.785,32.785c6.628,11.479 21.306,15.412 32.785,8.784c30.226,-17.451 52.605,-43.275 65.896,-72.851c9.564,-21.166 14.145,-43.537 14.131,-65.664c0.027,-22.185 -4.564,-44.618 -14.165,-65.837c-13.296,-29.545 -35.662,-55.34 -65.862,-72.776Zm-48,83.138c-11.479,-6.627 -26.157,-2.694 -32.785,8.785c-6.627,11.479 -2.694,26.157 8.785,32.784c2.452,1.416 4.387,3.382 5.74,5.653c0.039,0.068 0.077,0.136 0.117,0.204c0.265,0.46 0.505,0.927 0.72,1.401c0.941,2.083 1.431,4.353 1.426,6.648c-0.009,2.234 -0.487,4.443 -1.392,6.475c-0.224,0.499 -0.475,0.992 -0.755,1.476c-0.04,0.07 -0.08,0.14 -0.119,0.21c-1.353,2.268 -3.287,4.232 -5.737,5.646c-11.479,6.628 -15.412,21.306 -8.785,32.785c6.628,11.479 21.306,15.412 32.785,8.785c12.103,-6.988 21.061,-17.332 26.375,-29.178c3.809,-8.443 5.636,-17.364 5.636,-26.188c0.016,-8.893 -1.822,-17.887 -5.674,-26.392c-5.319,-11.811 -14.263,-22.123 -26.337,-29.094Zm-144,-40.574c0,-17.673 -14.327,-32 -32,-32c-17.673,0 -32,14.327 -32,32c0,17.673 14.327,32 32,32c17.673,0 32,-14.327 32,-32Z"/>
  <line style="stroke: rgb(255, 0, 0); stroke-width: 50px;" x1="15.554" y1="504.556" x2="501.921" y2="15.558"/>
</svg>